<?xml version="1.0" standalone="no"?><!DOCTYPE svg PUBLIC "-//W3C//DTD SVG 1.1//EN" "http://www.w3.org/Graphics/SVG/1.1/DTD/svg11.dtd"><svg t="1510932315444" class="icon" style="" viewBox="0 0 1024 1024" version="1.1" xmlns="http://www.w3.org/2000/svg" p-id="2545" xmlns:xlink="http://www.w3.org/1999/xlink" width="200" height="200"><defs><style type="text/css"></style></defs><path d="M512 981.333333c260.266667 0 469.333333-209.066667 469.333333-469.333333S772.266667 42.666667 512 42.666667 42.666667 251.733333 42.666667 512s209.066667 469.333333 469.333333 469.333333zM277.333333 552.533333l211.2-211.2c12.8-12.8 32-12.8 44.8 0l213.333334 211.2c12.8 12.8 12.8 32 0 44.8-12.8 12.8-32 12.8-44.8 0l-187.733334-187.733333-187.733333 187.733333c-12.8 12.8-32 12.8-44.8 0s-14.933333-32-4.266667-44.8z" p-id="2546" fill="#2c2c2c"></path></svg>